<?xml version="1.0" standalone="no"?>
<!DOCTYPE svg PUBLIC "-//W3C//DTD SVG 20010904//EN"
 "http://www.w3.org/TR/2001/REC-SVG-20010904/DTD/svg10.dtd">
<svg version="1.0" xmlns="http://www.w3.org/2000/svg"
 width="2806.000000pt" height="344.000000pt" viewBox="0 0 2806.000000 344.000000"
 preserveAspectRatio="xMidYMid meet">

<g transform="translate(0.000000,344.000000) scale(0.100000,-0.100000)" stroke="none">
<path d="M6406 3429 c-291 -33 -524 -147 -722 -351 -221 -229 -350 -523 -411
-943 -25 -172 -24 -619 1 -800 80 -575 328 -977 723 -1174 374 -186 923 -169
1270 41 308 186 529 536 617 978 38 191 49 315 49 555 0 121 -5 267 -12 325
-102 888 -588 1388 -1341 1379 -58 -1 -136 -5 -174 -10z m375 -629 c259 -87
414 -354 459 -790 13 -125 13 -426 0 -548 -42 -390 -173 -652 -380 -757 -121
-61 -307 -79 -435 -41 -243 72 -397 292 -460 657 -38 216 -38 617 0 828 68
387 231 607 491 665 92 21 240 14 325 -14z"/>
<path d="M3705 3404 c-315 -35 -544 -136 -733 -325 -183 -183 -281 -383 -313
-635 -11 -91 -8 -238 7 -326 8 -47 -2 -45 378 -54 290 -6 299 -6 291 12 -17
40 -18 256 -1 327 42 177 155 306 319 360 93 30 287 29 376 -2 214 -75 332
-269 301 -493 -20 -142 -82 -252 -208 -368 -66 -62 -141 -112 -404 -270 -178
-106 -362 -220 -409 -251 -306 -205 -495 -447 -597 -769 -50 -159 -82 -353
-82 -502 l0 -78 1215 0 1215 0 0 305 0 305 -785 0 c-432 0 -785 2 -785 5 0 25
55 102 114 160 82 81 111 100 541 362 361 219 464 293 585 420 199 207 294
424 307 704 15 320 -86 578 -310 796 -166 161 -353 255 -592 298 -89 16 -352
27 -430 19z"/>
<path d="M8780 1705 l0 -1705 365 0 365 0 0 685 0 685 670 0 670 0 0 -685 0
-685 370 0 370 0 0 1350 0 1350 490 0 490 0 0 -1350 0 -1350 370 0 370 0 0
1350 0 1350 513 0 512 0 311 -478 c172 -262 317 -486 324 -497 11 -18 -45
-108 -544 -869 -306 -466 -556 -850 -556 -852 0 -2 195 -4 433 -4 l432 0 345
551 c308 491 346 548 358 532 7 -10 162 -258 345 -550 l332 -533 442 0 c244 0
443 2 443 5 0 3 -250 386 -556 852 l-555 845 135 207 c74 113 324 496 555 851
l421 645 -423 3 c-232 1 -427 0 -433 -2 -5 -2 -165 -250 -355 -550 -189 -300
-346 -546 -349 -545 -3 0 -158 247 -344 549 l-339 550 -1954 0 -1953 0 0 -665
0 -665 -670 0 -670 0 0 665 0 665 -365 0 -365 0 0 -1705z m640 940 l0 -665
765 0 765 0 0 665 0 665 275 0 275 0 0 -1610 0 -1610 -275 0 -275 0 0 690 0
690 -765 0 -765 0 0 -690 0 -690 -272 2 -273 3 -3 1608 -2 1607 275 0 275 0 0
-665z m4672 420 c86 -132 157 -246 157 -252 1 -10 -109 -13 -519 -13 l-520 0
0 -1355 0 -1355 -275 0 -275 0 0 1355 0 1355 -520 0 -520 0 0 255 0 255 1157
-2 1157 -3 158 -240z m978 -340 c200 -322 366 -585 370 -585 5 0 174 263 377
585 l368 584 318 1 c174 0 317 -2 317 -5 0 -2 -234 -363 -520 -801 -287 -439
-519 -803 -517 -808 3 -6 239 -368 526 -804 286 -436 521 -795 521 -798 0 -2
-149 -3 -332 -2 l-332 3 -366 587 c-201 323 -368 589 -370 592 -3 2 -171 -261
-375 -586 -203 -325 -375 -592 -380 -594 -6 -2 -151 -3 -323 -2 l-313 3 526
803 c290 442 524 809 522 816 -3 8 -234 364 -514 792 -280 429 -512 785 -517
792 -6 9 61 12 323 12 l329 0 362 -585z"/>
<path d="M20905 3398 c-3 -7 -4 -767 -3 -1688 l3 -1675 333 -3 332 -2 0 650 0
650 173 0 172 -1 330 -649 330 -650 368 0 368 0 -69 133 c-364 690 -652 1241
-652 1246 0 4 26 15 58 25 241 76 468 277 567 501 105 236 117 534 33 795 -74
232 -269 455 -493 565 -106 52 -242 90 -370 105 -139 15 -1474 13 -1480 -2z
m1378 -581 c222 -64 347 -224 347 -447 0 -190 -87 -337 -246 -412 -108 -51
-168 -58 -506 -58 l-308 0 0 471 0 471 328 -4 c264 -4 338 -8 385 -21z"/>
<path d="M25281 3228 c-49 -101 -418 -856 -821 -1678 -403 -822 -734 -1501
-737 -1507 -4 -10 55 -13 274 -13 l280 0 821 1674 c452 920 824 1681 828 1690
6 15 -19 16 -275 16 l-282 0 -88 -182z"/>
<path d="M18285 3374 c-448 -45 -761 -195 -1065 -510 -293 -304 -439 -690
-440 -1162 -1 -596 241 -1077 699 -1391 198 -135 418 -221 676 -262 120 -20
437 -17 560 5 410 73 731 270 957 587 108 151 222 398 230 499 l3 34 -290 88
c-159 48 -304 92 -322 97 l-32 9 -22 -66 c-67 -209 -230 -406 -404 -493 -216
-106 -522 -118 -755 -28 -217 83 -411 271 -499 483 -57 138 -74 238 -75 436 0
189 8 250 55 395 87 274 334 501 622 575 158 40 372 35 526 -12 239 -73 440
-285 505 -533 8 -31 17 -59 20 -62 2 -3 151 41 331 98 l326 103 -7 31 c-14 68
-68 215 -110 300 -113 228 -324 455 -544 586 -134 80 -333 147 -512 173 -105
16 -359 27 -433 20z m370 -105 c128 -16 300 -61 403 -107 261 -115 517 -365
643 -629 38 -81 80 -201 71 -207 -12 -6 -460 -146 -469 -146 -5 0 -17 25 -28
56 -25 74 -91 185 -153 257 -184 216 -425 309 -760 294 -250 -11 -454 -97
-639 -270 -228 -214 -324 -485 -310 -876 12 -318 94 -520 291 -717 207 -206
421 -294 719 -294 298 0 500 80 677 266 88 93 138 166 187 272 20 42 37 78 38
80 2 3 467 -137 473 -142 4 -5 -36 -113 -72 -191 -93 -201 -289 -433 -466
-550 -239 -160 -508 -235 -837 -235 -258 0 -437 34 -641 121 -186 79 -346 193
-502 356 -246 256 -368 551 -401 961 -30 384 59 752 253 1044 74 112 265 306
384 391 194 137 411 225 643 262 107 16 376 19 496 4z"/>
<path d="M1045 2199 l-1010 -518 -3 -243 -2 -243 727 -372 c401 -204 857 -438
1016 -518 l287 -147 -2 301 -3 302 -687 337 c-378 186 -689 340 -692 343 -3 3
305 158 685 344 380 187 693 344 695 350 3 6 3 139 2 296 l-3 286 -1010 -518z"/>
<path d="M26002 2389 l3 -303 692 -340 c381 -187 689 -343 685 -347 -4 -4
-316 -159 -694 -345 l-688 -337 0 -294 c0 -161 2 -293 4 -293 6 0 1976 1009
2004 1027 22 13 22 15 22 252 l0 238 -932 478 c-513 263 -970 498 -1016 522
l-82 45 2 -303z"/>
</g>
</svg>
